<svg height="446pt" viewBox="-2 0 446 446.28" width="446pt" xmlns="http://www.w3.org/2000/svg"><path d="m77.410156 246.28125h8v-8c0-4.417969 3.582032-8 8-8-13.253906 0-24 10.742188-24 24 0-4.417969 3.582032-8 8-8zm0 0"/><path d="m85.410156 270.28125v-8h-8c-4.417968 0-8-3.582031-8-8 0 13.253906 10.746094 24 24 24-4.417968 0-8-3.582031-8-8zm0 0"/><path d="m109.410156 262.28125h-8v8c0 4.417969-3.578125 8-8 8 13.257813 0 24-10.746094 24-24 0 4.417969-3.578125 8-8 8zm0 0"/><path d="m397.410156 414.28125v-244.914062l-176-121.367188-136.703125 94.28125h64.703125c22.082032.023438 39.976563 17.917969 40 40v232zm-136-133.914062v-106.085938c0-17.675781 14.328125-32 32-32 17.675782 0 32 14.324219 32 32v106.085938c20.082032 13.984374 28.757813 39.382812 21.433594 62.726562-7.328125 23.34375-28.964844 39.230469-53.433594 39.230469-24.464844 0-46.101562-15.886719-53.429687-39.230469-7.324219-23.34375 1.351562-48.742188 21.429687-62.726562zm0 0"/><path d="m109.410156 358.28125h-32c-4.417968 0-8-3.582031-8-8 0 13.253906 10.746094 24 24 24 13.257813 0 24-10.746094 24-24 0 4.417969-3.578125 8-8 8zm0 0"/><path d="m293.410156 366.28125c18.066406-.046875 33.859375-12.191406 38.539063-29.640625 4.679687-17.449219-2.917969-35.867187-18.539063-44.945313-2.476562-1.429687-4-4.074218-4-6.933593v-110.480469c0-8.835938-7.160156-16-16-16-8.835937 0-16 7.164062-16 16v110.480469c.003906 2.859375-1.519531 5.503906-4 6.933593-15.617187 9.078126-23.214844 27.496094-18.535156 44.945313s20.472656 29.59375 38.535156 29.640625zm-8-62.527344v-89.472656c0-4.417969 3.582032-8 8-8 4.421875 0 8 3.582031 8 8v89.472656c11.023438 3.894532 17.632813 15.164063 15.65625 26.683594-1.976562 11.519531-11.964844 19.941406-23.65625 19.941406-11.6875 0-21.675781-8.421875-23.652344-19.941406-1.976562-11.519531 4.632813-22.789062 15.652344-26.683594zm0 0"/><path d="m93.410156 326.28125c-13.253906 0-24 10.742188-24 24 0-4.417969 3.582032-8 8-8h32c4.421875 0 8 3.582031 8 8 0-13.257812-10.742187-24-24-24zm0 0"/><path d="m173.410156 182.28125c0-13.257812-10.742187-24-24-24h-112c-13.253906 0-24 10.742188-24 24v8h160zm-72 0h-16c-4.417968 0-8-3.582031-8-8s3.582032-8 8-8h16c4.421875 0 8 3.582031 8 8s-3.578125 8-8 8zm0 0"/><path d="m442.683594 152.601562-221.273438-152.601562-221.269531 152.601562 4.28125 7.125c7.441406-10.902343 19.789063-17.433593 32.988281-17.445312h19.113282l160.34375-110.585938c2.734374-1.886718 6.355468-1.886718 9.089843 0l204.589844 141.082032zm0 0"/><path d="m333.410156 30.28125v27.519531l32 22.070313v-49.589844zm0 0"/><path d="m173.410156 414.28125h-160v8c0 13.253906 10.746094 24 24 24h112c13.257813 0 24-10.746094 24-24zm-64 24h-32c-4.417968 0-8-3.582031-8-8s3.582032-8 8-8h32c4.421875 0 8 3.582031 8 8s-3.578125 8-8 8zm0 0"/><path d="m173.410156 206.28125h-160v192h160zm-80 184c-22.089844 0-40-17.910156-40-40 0-22.09375 17.910156-40 40-40 22.09375 0 40 17.90625 40 40-.023437 22.078125-17.917968 39.972656-40 40zm0-96c-22.089844 0-40-17.910156-40-40 0-22.09375 17.910156-40 40-40 22.09375 0 40 17.90625 40 40-.023437 22.078125-17.917968 39.972656-40 40zm0 0"/><path d="m93.410156 230.28125c4.421875 0 8 3.582031 8 8v8h8c4.421875 0 8 3.582031 8 8 0-13.257812-10.742187-24-24-24zm0 0"/><path d="m301.410156 326.28125c0 4.417969-3.578125 8-8 8-4.417968 0-8-3.582031-8-8s3.582032-8 8-8c4.421875 0 8 3.582031 8 8zm0 0"/></svg>